<svg width="256" height="256" viewBox="0 0 256 256" fill="none" xmlns="http://www.w3.org/2000/svg">
<g id="github_corner" clip-path="url(#clip0)">
<path id="corner" d="M256 256L0 0L255.5 0.5L256 256Z" fill="black" stroke="black"/>
<g id="gh">
<ellipse id="bg" cx="169.398" cy="86.3983" rx="60.44" ry="61.7457" transform="rotate(45 169.398 86.3983)" fill="white"/>
<path id="Vector" fill-rule="evenodd" clip-rule="evenodd" d="M214.766 41.4446C190.763 17.4415 151.388 17.9332 126.778 42.5435C107.068 62.254 102.855 91.3382 114.223 114.509C116.005 117.071 118.156 116.55 119.325 115.38C120.383 114.323 123.837 110.76 127.567 107.03C114.592 98.1746 116.556 90.5623 118.193 87.1878C118.985 85.4184 120.82 79.3473 120.032 76.443C119.346 74.0872 119.234 69.8548 122.928 73.4376C126.405 76.8032 125.564 82.5321 125.042 84.683C122.215 95.3302 130.353 99.6823 134.021 101.011C137.296 98.4959 140.385 97.6875 142.748 97.823C134.195 87.0429 127.936 73.1002 144.974 56.0623C149.818 51.2182 155.51 48.8927 161.398 48.5443C162.077 46.9963 165.122 40.91 173.637 37.1747C173.637 37.1747 178.444 39.6439 181.018 53.6877C185.496 56.161 189.69 59.3527 193.383 63.0455C197.075 66.7383 200.267 70.9322 202.74 75.41C216.84 77.9281 219.253 82.7916 219.253 82.7916C215.518 91.3058 209.432 94.3509 207.884 95.0301C207.535 100.918 205.266 106.554 200.366 111.454C183.272 128.548 169.331 122.179 158.551 113.626C158.734 116.593 157.419 120.623 153.243 124.799C147.285 130.757 142.442 135.491 140.939 136.994C139.77 138.163 139.192 140.37 141.81 142.097C164.873 153.355 194.013 149.088 213.667 129.433C238.278 104.823 238.769 65.4478 214.766 41.4446Z" fill="black"/>
</g>
</g>
<defs>
<clipPath id="clip0">
<rect width="256" height="256" fill="white"/>
</clipPath>
</defs>
</svg>
