<svg width="256" height="256" viewBox="0 0 256 256" fill="none" xmlns="http://www.w3.org/2000/svg">
<path fill-rule="evenodd" clip-rule="evenodd" d="M81.065 34.8548C116.576 51.8436 138.5 89.1017 138.5 122.895C138.5 148.738 135.229 168.082 124.15 184.857C114.592 199.331 99.4864 211.483 76.7663 224.408C105.017 226.476 135.82 218.771 160.619 203.186C188.948 185.383 209 157.621 209 122.895C209 88.4882 187.276 64.532 157.936 50.2387C134.062 38.6084 105.599 33.6523 81.065 34.8548ZM161.439 43.0467C192.474 58.1654 217 84.4066 217 122.895C217 161.063 194.882 191.102 164.876 209.96C134.922 228.784 96.6675 236.789 63.2898 230.767C61.6102 230.464 60.3079 229.128 60.047 227.442C59.7861 225.755 60.6242 224.089 62.1338 223.292C90.7358 208.205 107.611 195.384 117.475 180.449C127.271 165.615 130.5 148.157 130.5 122.895C130.5 87.7213 104.129 47.8619 62.9454 36.6053C61.1433 36.1128 59.9222 34.4384 60.0038 32.5721C60.0854 30.7057 61.448 29.1444 63.2862 28.811C92.3687 23.5366 130.483 27.9661 161.439 43.0467Z" fill="black"/>
</svg>
