<svg width="256" height="256" viewBox="0 0 256 256" fill="none" xmlns="http://www.w3.org/2000/svg">
<path fill-rule="evenodd" clip-rule="evenodd" d="M128 190C162.242 190 190 162.242 190 128C190 93.7583 162.242 66 128 66C93.7583 66 66 93.7583 66 128C66 162.242 93.7583 190 128 190ZM128 198C166.66 198 198 166.66 198 128C198 89.3401 166.66 58 128 58C89.3401 58 58 89.3401 58 128C58 166.66 89.3401 198 128 198Z" fill="black"/>
<path fill-rule="evenodd" clip-rule="evenodd" d="M129 3C131.209 3 133 4.79086 133 7V43.5C133 45.7091 131.209 47.5 129 47.5C126.791 47.5 125 45.7091 125 43.5V7C125 4.79086 126.791 3 129 3Z" fill="black"/>
<path fill-rule="evenodd" clip-rule="evenodd" d="M207 128C207 125.791 208.791 124 211 124H247.5C249.709 124 251.5 125.791 251.5 128C251.5 130.209 249.709 132 247.5 132H211C208.791 132 207 130.209 207 128Z" fill="black"/>
<path fill-rule="evenodd" clip-rule="evenodd" d="M38.1716 40.1716C39.7337 38.6095 42.2663 38.6095 43.8284 40.1716L69.6378 65.981C71.1999 67.5431 71.1999 70.0757 69.6378 71.6378C68.0757 73.1999 65.5431 73.1999 63.981 71.6378L38.1716 45.8284C36.6095 44.2663 36.6095 41.7337 38.1716 40.1716Z" fill="black"/>
<path fill-rule="evenodd" clip-rule="evenodd" d="M188.172 188.172C189.734 186.609 192.266 186.609 193.828 188.172L219.638 213.981C221.2 215.543 221.2 218.076 219.638 219.638C218.076 221.2 215.543 221.2 213.981 219.638L188.172 193.828C186.609 192.266 186.609 189.734 188.172 188.172Z" fill="black"/>
<path fill-rule="evenodd" clip-rule="evenodd" d="M219.638 40.1716C221.2 41.7337 221.2 44.2663 219.638 45.8284L193.828 71.6378C192.266 73.1999 189.734 73.1999 188.172 71.6378C186.609 70.0757 186.609 67.5431 188.172 65.981L213.981 40.1716C215.543 38.6095 218.076 38.6095 219.638 40.1716Z" fill="black"/>
<path fill-rule="evenodd" clip-rule="evenodd" d="M69.6378 188.172C71.1999 189.734 71.1999 192.266 69.6378 193.828L43.8284 219.638C42.2663 221.2 39.7337 221.2 38.1716 219.638C36.6095 218.076 36.6095 215.543 38.1716 213.981L63.981 188.172C65.5431 186.609 68.0757 186.609 69.6378 188.172Z" fill="black"/>
<path fill-rule="evenodd" clip-rule="evenodd" d="M4 128C4 125.791 5.79086 124 8 124H44.5C46.7091 124 48.5 125.791 48.5 128C48.5 130.209 46.7091 132 44.5 132H8C5.79086 132 4 130.209 4 128Z" fill="black"/>
<path fill-rule="evenodd" clip-rule="evenodd" d="M129 207C131.209 207 133 208.791 133 211V247.5C133 249.709 131.209 251.5 129 251.5C126.791 251.5 125 249.709 125 247.5V211C125 208.791 126.791 207 129 207Z" fill="black"/>
</svg>
