<svg width="256" height="256" viewBox="0 0 256 256" fill="none" xmlns="http://www.w3.org/2000/svg">
<path d="M51.1124 221.8C91.6104 258.276 177.995 237.201 196.26 221.8C278.5 161 193 -3.00001 102.5 17C126.983 55.3138 151.958 82.0676 116.4 118.128C102.798 91.0826 61.5 67.5 36.5393 79.2504C90 151.5 -8 164 51.1124 221.8Z" fill="url(#paint0_linear)" stroke="url(#paint1_linear)" stroke-width="10" stroke-linejoin="round"/>
<path d="M91.184 157.889C92.2973 157.889 92.8539 159.305 92.8539 162.137C92.8539 162.84 92.3852 163.465 91.4477 164.012L71.0277 175.057L91.2133 186.6C92.3266 187.205 92.8832 188.016 92.8832 189.031C92.8832 190.047 92.7074 190.896 92.3559 191.58C92.0238 192.244 91.6234 192.576 91.1547 192.576C90.6859 192.576 90.266 192.469 89.8949 192.254L66.3109 179.188C64.9633 178.387 64.2895 177.098 64.2895 175.32C64.2895 174.441 64.475 173.602 64.8461 172.801C65.2367 171.98 65.725 171.395 66.3109 171.043L89.8949 158.328C90.4223 158.035 90.852 157.889 91.184 157.889ZM136.586 143.855C137.172 143.602 137.787 143.475 138.432 143.475C139.076 143.475 139.613 143.514 140.043 143.592C140.473 143.65 140.844 143.758 141.156 143.914C141.898 144.227 142.211 144.666 142.094 145.232L120.648 201.834C120.082 202.049 119.467 202.156 118.803 202.156C118.158 202.156 117.621 202.117 117.191 202.039C116.781 201.98 116.41 201.883 116.078 201.746C115.375 201.414 115.072 201.004 115.17 200.516L136.586 143.855ZM165.787 158.709C164.673 158.709 164.117 160.125 164.117 162.957C164.117 163.66 164.586 164.285 165.523 164.832L185.943 175.877L165.757 187.42C164.644 188.025 164.088 188.836 164.088 189.852C164.088 190.867 164.254 191.717 164.586 192.4C164.937 193.064 165.347 193.396 165.816 193.396C166.285 193.396 166.705 193.289 167.076 193.074L190.66 180.008C192.007 179.207 192.681 177.918 192.681 176.141C192.681 175.262 192.486 174.422 192.095 173.621C191.724 172.801 191.246 172.215 190.66 171.863L167.076 159.148C166.548 158.855 166.119 158.709 165.787 158.709Z" fill="#A6E4FF"/>
<path d="M141.025 95.46C140.695 95.82 140.275 96 139.765 96C139.255 96 138.82 95.82 138.46 95.46C138.13 95.1 137.965 94.68 137.965 94.2V64.05C137.965 63.57 138.13 63.15 138.46 62.79C138.82 62.43 139.255 62.25 139.765 62.25C140.275 62.25 140.695 62.43 141.025 62.79C141.385 63.15 141.565 63.57 141.565 64.05V94.2C141.565 94.68 141.385 95.1 141.025 95.46ZM166.002 95.46C165.672 95.82 165.252 96 164.742 96C164.232 96 163.797 95.82 163.437 95.46C163.107 95.1 162.942 94.68 162.942 94.2V74.4C162.942 73.92 163.107 73.5 163.437 73.14C163.797 72.78 164.232 72.6 164.742 72.6C165.252 72.6 165.672 72.78 166.002 73.14C166.362 73.5 166.542 73.92 166.542 74.4V94.2C166.542 94.68 166.362 95.1 166.002 95.46ZM166.002 66.57C165.672 66.9 165.252 67.065 164.742 67.065C164.232 67.065 163.797 66.9 163.437 66.57C163.107 66.21 162.942 65.775 162.942 65.265V64.05C162.942 63.57 163.107 63.15 163.437 62.79C163.797 62.43 164.232 62.25 164.742 62.25C165.252 62.25 165.672 62.43 166.002 62.79C166.362 63.15 166.542 63.57 166.542 64.05V65.265C166.542 65.775 166.362 66.21 166.002 66.57ZM187.222 76.2C186.832 76.2 186.502 76.08 186.232 75.84C185.992 75.57 185.872 75.24 185.872 74.85C185.872 74.46 185.992 74.145 186.232 73.905C186.502 73.635 186.832 73.5 187.222 73.5H190.507C190.777 73.5 190.912 73.365 190.912 73.095V66.66C190.912 66.18 191.077 65.775 191.407 65.445C191.737 65.115 192.142 64.95 192.622 64.95C193.102 64.95 193.507 65.115 193.837 65.445C194.167 65.775 194.332 66.18 194.332 66.66V73.095C194.332 73.365 194.467 73.5 194.737 73.5H201.487C201.877 73.5 202.192 73.635 202.432 73.905C202.702 74.145 202.837 74.46 202.837 74.85C202.837 75.24 202.702 75.57 202.432 75.84C202.192 76.08 201.877 76.2 201.487 76.2H194.737C194.467 76.2 194.332 76.335 194.332 76.605V88.485C194.332 90.645 194.617 92.07 195.187 92.76C195.757 93.42 196.852 93.75 198.472 93.75C199.432 93.75 200.227 93.675 200.857 93.525C201.187 93.465 201.487 93.54 201.757 93.75C202.057 93.93 202.207 94.185 202.207 94.515C202.207 94.935 202.072 95.31 201.802 95.64C201.562 95.97 201.247 96.165 200.857 96.225C200.077 96.375 199.087 96.45 197.887 96.45C195.247 96.45 193.417 95.91 192.397 94.83C191.407 93.72 190.912 91.71 190.912 88.8V76.605C190.912 76.335 190.777 76.2 190.507 76.2H187.222Z" fill="#BFF0FF"/>
<defs>
<linearGradient id="paint0_linear" x1="110" y1="98.5" x2="165" y2="238.5" gradientUnits="userSpaceOnUse">
<stop stop-color="#01C2FF"/>
<stop offset="1" stop-color="#0156D2"/>
</linearGradient>
<linearGradient id="paint1_linear" x1="86.0876" y1="3.18627" x2="171.755" y2="236.692" gradientUnits="userSpaceOnUse">
<stop offset="0.390625" stop-color="#00C2FF"/>
<stop offset="1" stop-color="#0054D1"/>
</linearGradient>
</defs>
</svg>
